ffmpeg started on 2025-05-13 at 10:56:29
Report written to "D:\Convert\FFMetrics\reports\psnr_report-6.txt"
Log level: 32
Command line:
ffmpeg -hide_banner -nostdin -i "G:\\\xc0\xed\xe8\xec\xe5\\\xce\xed\xe3\xee\xe8\xed\xe3\xe8\\!_35_\xcb\xe5\xf2\xee_2024\\DreamCast-1\\\xdf \xf1\xf2\xe0\xeb \xf1\xe0\xec\xfb\xec \xf1\xe8\xeb\xfc\xed\xfb\xec \xf1 \xef\xf0\xee\xe2\xe0\xeb\xfc\xed\xfb\xec \xed\xe0\xe2\xfb\xea\xee\xec \xab\xed\xe5\xed\xee\xf0\xec\xe0\xeb\xfc\xed\xee\xe5 \xf1\xee\xf1\xf2\xee\xff\xed\xe8\xe5\xbb, \xff \xf0\xe0\xe7\xf0\xf3\xf8\xf3 \xe2\xf1\xb8\\[DC] Hazurewaku - 10_Telegram_HEVC.mkv" -i "G:\\\xc0\xed\xe8\xec\xe5\\\xce\xed\xe3\xee\xe8\xed\xe3\xe8\\!_35_\xcb\xe5\xf2\xee_2024\\DreamCast-1\\\xdf \xf1\xf2\xe0\xeb \xf1\xe0\xec\xfb\xec \xf1\xe8\xeb\xfc\xed\xfb\xec \xf1 \xef\xf0\xee\xe2\xe0\xeb\xfc\xed\xfb\xec \xed\xe0\xe2\xfb\xea\xee\xec \xab\xed\xe5\xed\xee\xf0\xec\xe0\xeb\xfc\xed\xee\xe5 \xf1\xee\xf1\xf2\xee\xff\xed\xe8\xe5\xbb, \xff \xf0\xe0\xe7\xf0\xf3\xf8\xf3 \xe2\xf1\xb8\\[DC] Hazurewaku - 10_Telegram.mp4" -lavfi "[0:v]settb=AVTB,setpts=PTS-STARTPTS,format=pix_fmts=yuv420p10,fps=24000/1001,scale=1920:1080:flags=bicubic[main];[1:v]settb=AVTB,setpts=PTS-STARTPTS,format=pix_fmts=yuv420p,fps=24000/1001,scale=1920:1080:flags=bicubic[ref];[main][ref]psnr=eof_action=endall:stats_file='D\\:/Convert/FFMetrics/logs/psnr_logfile-6.txt'" -f null -
Input #0, matroska,webm, from 'G:\Аниме\Онгоинги\!_35_Лето_2024\DreamCast-1\Я стал самым сильным с провальным навыком «ненормальное состояние», я разрушу всё\[DC] Hazurewaku - 10_Telegram_HEVC.mkv':
  Metadata:
    COMPATIBLE_BRANDS: isomiso2avc1mp41
    MAJOR_BRAND     : isom
    MINOR_VERSION   : 512
    ENCODER         : Lavf61.7.100
  Duration: 00:24:17.71, start: -0.021000, bitrate: 1406 kb/s
  Stream #0:0: Video: hevc (Main 10), yuv420p10le(tv, bt709, progressive), 1920x1080 [SAR 1:1 DAR 16:9], 23.98 fps, 23.98 tbr, 1k tbn (default)
      Metadata:
        HANDLER_NAME    : VideoHandler
        VENDOR_ID       : [0][0][0][0]
        ENCODER         : Lavc61.19.100 libx265
        BPS             : 1210197
        DURATION        : 00:24:16.496708333
        NUMBER_OF_FRAMES: 34921
        NUMBER_OF_BYTES : 220331000
        _STATISTICS_WRITING_APP: mkvpropedit v66.0.0 ('Josie') 64-bit
        _STATISTICS_WRITING_DATE_UTC: 2025-05-11 16:13:23
        _STATISTICS_TAGS: BPS DURATION NUMBER_OF_FRAMES NUMBER_OF_BYTES
  Stream #0:1: Audio: aac (LC), 48000 Hz, stereo, fltp (default)
      Metadata:
        HANDLER_NAME    : SoundHandler
        VENDOR_ID       : [0][0][0][0]
        ENCODER         : Lavc61.19.100 aac
        BPS             : 193124
        DURATION        : 00:24:17.706000000
        NUMBER_OF_FRAMES: 68331
        NUMBER_OF_BYTES : 35189777
        _STATISTICS_WRITING_APP: mkvpropedit v66.0.0 ('Josie') 64-bit
        _STATISTICS_WRITING_DATE_UTC: 2025-05-11 16:13:23
        _STATISTICS_TAGS: BPS DURATION NUMBER_OF_FRAMES NUMBER_OF_BYTES
Input #1, mov,mp4,m4a,3gp,3g2,mj2, from 'G:\Аниме\Онгоинги\!_35_Лето_2024\DreamCast-1\Я стал самым сильным с провальным навыком «ненормальное состояние», я разрушу всё\[DC] Hazurewaku - 10_Telegram.mp4':
  Metadata:
    major_brand     : isom
    minor_version   : 512
    compatible_brands: isomiso2avc1mp41
    encoder         : Lavf61.1.100
  Duration: 00:24:17.65, start: 0.000000, bitrate: 3553 kb/s
  Stream #1:0[0x1](und): Video: h264 (High) (avc1 / 0x31637661), yuv420p(tv, bt709, progressive), 1920x1080 [SAR 1:1 DAR 16:9], 3407 kb/s, 23.98 fps, 23.98 tbr, 24k tbn (default)
      Metadata:
        handler_name    : VideoHandler
        vendor_id       : [0][0][0][0]
        encoder         : Lavc61.3.100 h264_qsv
  Stream #1:1[0x2](und): Audio: aac (HE-AACv2) (mp4a / 0x6134706D), 48000 Hz, stereo, fltp, 144 kb/s (default)
      Metadata:
        handler_name    : SoundHandler
        vendor_id       : [0][0][0][0]
Stream mapping:
  Stream #0:0 (hevc) -> settb:default
  Stream #1:0 (h264) -> settb:default
  psnr:default -> Stream #0:0 (wrapped_avframe)
  Stream #0:1 -> #0:1 (aac (native) -> pcm_s16le (native))
Output #0, null, to 'pipe:':
  Metadata:
    COMPATIBLE_BRANDS: isomiso2avc1mp41
    MAJOR_BRAND     : isom
    MINOR_VERSION   : 512
    encoder         : Lavf61.7.100
  Stream #0:0: Video: wrapped_avframe, yuv420p10le(tv, bt709, progressive), 1920x1080 [SAR 1:1 DAR 16:9], q=2-31, 200 kb/s, 23.98 fps, 23.98 tbn
      Metadata:
        encoder         : Lavc61.19.100 wrapped_avframe
  Stream #0:1: Audio: pcm_s16le, 48000 Hz, stereo, s16, 1536 kb/s (default)
      Metadata:
        HANDLER_NAME    : SoundHandler
        VENDOR_ID       : [0][0][0][0]
        _STATISTICS_TAGS: BPS DURATION NUMBER_OF_FRAMES NUMBER_OF_BYTES
        BPS             : 193124
        DURATION        : 00:24:17.706000000
        NUMBER_OF_FRAMES: 68331
        NUMBER_OF_BYTES : 35189777
        _STATISTICS_WRITING_APP: mkvpropedit v66.0.0 ('Josie') 64-bit
        _STATISTICS_WRITING_DATE_UTC: 2025-05-11 16:13:23
        encoder         : Lavc61.19.100 pcm_s16le
frame=  155 fps=0.0 q=-0.0 size=N/A time=00:00:06.46 bitrate=N/A speed=12.4x    frame=  361 fps=351 q=-0.0 size=N/A time=00:00:15.05 bitrate=N/A speed=14.6x    frame=  627 fps=408 q=-0.0 size=N/A time=00:00:26.15 bitrate=N/A speed=  17x    frame=  894 fps=434 q=-0.0 size=N/A time=00:00:37.28 bitrate=N/A speed=18.1x    frame= 1114 fps=431 q=-0.0 size=N/A time=00:00:46.46 bitrate=N/A speed=  18x    frame= 1343 fps=434 q=-0.0 size=N/A time=00:00:56.01 bitrate=N/A speed=18.1x    frame= 1561 fps=432 q=-0.0 size=N/A time=00:01:05.10 bitrate=N/A speed=  18x    frame= 1804 fps=438 q=-0.0 size=N/A time=00:01:15.24 bitrate=N/A speed=18.3x    frame= 1995 fps=430 q=-0.0 size=N/A time=00:01:23.20 bitrate=N/A speed=17.9x    frame= 2225 fps=432 q=-0.0 size=N/A time=00:01:32.80 bitrate=N/A speed=  18x    frame= 2479 fps=437 q=-0.0 size=N/A time=00:01:43.39 bitrate=N/A speed=18.2x    frame= 2677 fps=433 q=-0.0 size=N/A time=00:01:51.65 bitrate=N/A speed=18.1x    frame= 2899 fps=432 q=-0.0 size=N/A time=00:02:00.91 bitrate=N/A speed=  18x    frame= 3131 fps=434 q=-0.0 size=N/A time=00:02:10.58 bitrate=N/A speed=18.1x    frame= 3357 fps=434 q=-0.0 size=N/A time=00:02:20.01 bitrate=N/A speed=18.1x    frame= 3620 fps=439 q=-0.0 size=N/A time=00:02:30.98 bitrate=N/A speed=18.3x    frame= 3856 fps=440 q=-0.0 size=N/A time=00:02:40.82 bitrate=N/A speed=18.4x    frame= 4071 fps=438 q=-0.0 size=N/A time=00:02:49.79 bitrate=N/A speed=18.3x    frame= 4300 fps=439 q=-0.0 size=N/A time=00:02:59.34 bitrate=N/A speed=18.3x    frame= 4463 fps=433 q=-0.0 size=N/A time=00:03:06.14 bitrate=N/A speed=  18x    frame= 4633 fps=428 q=-0.0 size=N/A time=00:03:13.23 bitrate=N/A speed=17.9x    frame= 4854 fps=428 q=-0.0 size=N/A time=00:03:22.45 bitrate=N/A speed=17.8x    frame= 5081 fps=428 q=-0.0 size=N/A time=00:03:31.92 bitrate=N/A speed=17.9x    frame= 5251 fps=424 q=-0.0 size=N/A time=00:03:39.01 bitrate=N/A speed=17.7x    frame= 5426 fps=421 q=-0.0 size=N/A time=00:03:46.30 bitrate=N/A speed=17.6x    frame= 5609 fps=418 q=-0.0 size=N/A time=00:03:53.94 bitrate=N/A speed=17.4x    frame= 5777 fps=415 q=-0.0 size=N/A time=00:04:00.94 bitrate=N/A speed=17.3x    frame= 5987 fps=415 q=-0.0 size=N/A time=00:04:09.70 bitrate=N/A speed=17.3x    frame= 6187 fps=414 q=-0.0 size=N/A time=00:04:18.04 bitrate=N/A speed=17.3x    frame= 6373 fps=412 q=-0.0 size=N/A time=00:04:25.80 bitrate=N/A speed=17.2x    frame= 6554 fps=410 q=-0.0 size=N/A time=00:04:33.35 bitrate=N/A speed=17.1x    frame= 6756 fps=410 q=-0.0 size=N/A time=00:04:41.78 bitrate=N/A speed=17.1x    frame= 7005 fps=412 q=-0.0 size=N/A time=00:04:52.16 bitrate=N/A speed=17.2x    frame= 7251 fps=414 q=-0.0 size=N/A time=00:05:02.42 bitrate=N/A speed=17.3x    frame= 7475 fps=414 q=-0.0 size=N/A time=00:05:11.76 bitrate=N/A speed=17.3x    frame= 7718 fps=416 q=-0.0 size=N/A time=00:05:21.90 bitrate=N/A speed=17.3x    frame= 7967 fps=418 q=-0.0 size=N/A time=00:05:32.29 bitrate=N/A speed=17.4x    frame= 8238 fps=420 q=-0.0 size=N/A time=00:05:43.59 bitrate=N/A speed=17.5x    frame= 8483 fps=422 q=-0.0 size=N/A time=00:05:53.81 bitrate=N/A speed=17.6x    frame= 8720 fps=423 q=-0.0 size=N/A time=00:06:03.69 bitrate=N/A speed=17.6x    frame= 8947 fps=423 q=-0.0 size=N/A time=00:06:13.16 bitrate=N/A speed=17.6x    frame= 9195 fps=425 q=-0.0 size=N/A time=00:06:23.50 bitrate=N/A speed=17.7x    frame= 9455 fps=426 q=-0.0 size=N/A time=00:06:34.35 bitrate=N/A speed=17.8x    frame= 9711 fps=428 q=-0.0 size=N/A time=00:06:45.02 bitrate=N/A speed=17.9x    frame= 9964 fps=429 q=-0.0 size=N/A time=00:06:55.58 bitrate=N/A speed=17.9x    frame=10177 fps=429 q=-0.0 size=N/A time=00:07:04.46 bitrate=N/A speed=17.9x    frame=10442 fps=431 q=-0.0 size=N/A time=00:07:15.51 bitrate=N/A speed=  18x    frame=10705 fps=433 q=-0.0 size=N/A time=00:07:26.48 bitrate=N/A speed=  18x    frame=10932 fps=433 q=-0.0 size=N/A time=00:07:35.95 bitrate=N/A speed=  18x    frame=11141 fps=432 q=-0.0 size=N/A time=00:07:44.67 bitrate=N/A speed=  18x    frame=11365 fps=432 q=-0.0 size=N/A time=00:07:54.01 bitrate=N/A speed=  18x    frame=11573 fps=432 q=-0.0 size=N/A time=00:08:02.69 bitrate=N/A speed=  18x    frame=11777 fps=431 q=-0.0 size=N/A time=00:08:11.19 bitrate=N/A speed=  18x    frame=12023 fps=432 q=-0.0 size=N/A time=00:08:21.45 bitrate=N/A speed=  18x    frame=12268 fps=433 q=-0.0 size=N/A time=00:08:31.67 bitrate=N/A speed=  18x    frame=12507 fps=433 q=-0.0 size=N/A time=00:08:41.64 bitrate=N/A speed=18.1x    frame=12770 fps=435 q=-0.0 size=N/A time=00:08:52.61 bitrate=N/A speed=18.1x    frame=13039 fps=436 q=-0.0 size=N/A time=00:09:03.83 bitrate=N/A speed=18.2x    frame=13322 fps=438 q=-0.0 size=N/A time=00:09:15.63 bitrate=N/A speed=18.3x    frame=13554 fps=438 q=-0.0 size=N/A time=00:09:25.31 bitrate=N/A speed=18.3x    frame=13831 fps=440 q=-0.0 size=N/A time=00:09:36.86 bitrate=N/A speed=18.3x    frame=14090 fps=441 q=-0.0 size=N/A time=00:09:47.67 bitrate=N/A speed=18.4x    frame=14357 fps=442 q=-0.0 size=N/A time=00:09:58.80 bitrate=N/A speed=18.4x    frame=14560 fps=441 q=-0.0 size=N/A time=00:10:07.27 bitrate=N/A speed=18.4x    frame=14854 fps=443 q=-0.0 size=N/A time=00:10:19.53 bitrate=N/A speed=18.5x    frame=15099 fps=444 q=-0.0 size=N/A time=00:10:29.75 bitrate=N/A speed=18.5x    frame=15345 fps=444 q=-0.0 size=N/A time=00:10:40.01 bitrate=N/A speed=18.5x    frame=15616 fps=445 q=-0.0 size=N/A time=00:10:51.31 bitrate=N/A speed=18.6x    frame=15875 fps=446 q=-0.0 size=N/A time=00:11:02.11 bitrate=N/A speed=18.6x    frame=16112 fps=446 q=-0.0 size=N/A time=00:11:12.00 bitrate=N/A speed=18.6x    frame=16322 fps=446 q=-0.0 size=N/A time=00:11:20.76 bitrate=N/A speed=18.6x    frame=16593 fps=447 q=-0.0 size=N/A time=00:11:32.06 bitrate=N/A speed=18.6x    frame=16847 fps=448 q=-0.0 size=N/A time=00:11:42.66 bitrate=N/A speed=18.7x    frame=17102 fps=448 q=-0.0 size=N/A time=00:11:53.29 bitrate=N/A speed=18.7x    frame=17333 fps=448 q=-0.0 size=N/A time=00:12:02.93 bitrate=N/A speed=18.7x    frame=17558 fps=448 q=-0.0 size=N/A time=00:12:12.31 bitrate=N/A speed=18.7x    frame=17825 fps=449 q=-0.0 size=N/A time=00:12:23.45 bitrate=N/A speed=18.7x    frame=18085 fps=450 q=-0.0 size=N/A time=00:12:34.29 bitrate=N/A speed=18.7x    frame=18334 fps=450 q=-0.0 size=N/A time=00:12:44.68 bitrate=N/A speed=18.8x    frame=18563 fps=450 q=-0.0 size=N/A time=00:12:54.23 bitrate=N/A speed=18.8x    frame=18773 fps=449 q=-0.0 size=N/A time=00:13:02.99 bitrate=N/A speed=18.7x    frame=19022 fps=450 q=-0.0 size=N/A time=00:13:13.37 bitrate=N/A speed=18.8x    frame=19277 fps=450 q=-0.0 size=N/A time=00:13:24.01 bitrate=N/A speed=18.8x    frame=19481 fps=450 q=-0.0 size=N/A time=00:13:32.52 bitrate=N/A speed=18.8x    frame=19740 fps=450 q=-0.0 size=N/A time=00:13:43.32 bitrate=N/A speed=18.8x    frame=20002 fps=451 q=-0.0 size=N/A time=00:13:54.25 bitrate=N/A speed=18.8x    frame=20266 fps=452 q=-0.0 size=N/A time=00:14:05.26 bitrate=N/A speed=18.8x    frame=20515 fps=452 q=-0.0 size=N/A time=00:14:15.64 bitrate=N/A speed=18.9x    frame=20746 fps=452 q=-0.0 size=N/A time=00:14:25.28 bitrate=N/A speed=18.8x    frame=20982 fps=452 q=-0.0 size=N/A time=00:14:35.12 bitrate=N/A speed=18.9x    frame=21214 fps=452 q=-0.0 size=N/A time=00:14:44.80 bitrate=N/A speed=18.9x    frame=21416 fps=451 q=-0.0 size=N/A time=00:14:53.22 bitrate=N/A speed=18.8x    frame=21660 fps=452 q=-0.0 size=N/A time=00:15:03.40 bitrate=N/A speed=18.8x    frame=21845 fps=451 q=-0.0 size=N/A time=00:15:11.11 bitrate=N/A speed=18.8x    frame=22031 fps=450 q=-0.0 size=N/A time=00:15:18.87 bitrate=N/A speed=18.8x    frame=22216 fps=449 q=-0.0 size=N/A time=00:15:26.59 bitrate=N/A speed=18.7x    frame=22456 fps=449 q=-0.0 size=N/A time=00:15:36.60 bitrate=N/A speed=18.7x    frame=22727 fps=450 q=-0.0 size=N/A time=00:15:47.90 bitrate=N/A speed=18.8x    frame=22995 fps=450 q=-0.0 size=N/A time=00:15:59.08 bitrate=N/A speed=18.8x    frame=23261 fps=451 q=-0.0 size=N/A time=00:16:10.17 bitrate=N/A speed=18.8x    frame=23527 fps=452 q=-0.0 size=N/A time=00:16:21.27 bitrate=N/A speed=18.8x    frame=23803 fps=452 q=-0.0 size=N/A time=00:16:32.78 bitrate=N/A speed=18.9x    frame=24048 fps=453 q=-0.0 size=N/A time=00:16:43.00 bitrate=N/A speed=18.9x    frame=24316 fps=453 q=-0.0 size=N/A time=00:16:54.17 bitrate=N/A speed=18.9x    frame=24537 fps=453 q=-0.0 size=N/A time=00:17:03.39 bitrate=N/A speed=18.9x    frame=24809 fps=454 q=-0.0 size=N/A time=00:17:14.74 bitrate=N/A speed=18.9x    frame=25083 fps=454 q=-0.0 size=N/A time=00:17:26.17 bitrate=N/A speed=  19x    frame=25348 fps=455 q=-0.0 size=N/A time=00:17:37.22 bitrate=N/A speed=  19x    frame=25630 fps=456 q=-0.0 size=N/A time=00:17:48.98 bitrate=N/A speed=  19x    frame=25891 fps=456 q=-0.0 size=N/A time=00:17:59.87 bitrate=N/A speed=  19x    frame=26167 fps=457 q=-0.0 size=N/A time=00:18:11.38 bitrate=N/A speed=19.1x    frame=26405 fps=457 q=-0.0 size=N/A time=00:18:21.30 bitrate=N/A speed=19.1x    frame=26617 fps=457 q=-0.0 size=N/A time=00:18:30.15 bitrate=N/A speed=  19x    frame=26841 fps=456 q=-0.0 size=N/A time=00:18:39.49 bitrate=N/A speed=  19x    frame=27088 fps=457 q=-0.0 size=N/A time=00:18:49.79 bitrate=N/A speed=  19x    frame=27349 fps=457 q=-0.0 size=N/A time=00:19:00.68 bitrate=N/A speed=19.1x    frame=27622 fps=458 q=-0.0 size=N/A time=00:19:12.06 bitrate=N/A speed=19.1x    frame=27845 fps=457 q=-0.0 size=N/A time=00:19:21.36 bitrate=N/A speed=19.1x    frame=28068 fps=457 q=-0.0 size=N/A time=00:19:30.66 bitrate=N/A speed=19.1x    frame=28302 fps=457 q=-0.0 size=N/A time=00:19:40.42 bitrate=N/A speed=19.1x    frame=28536 fps=457 q=-0.0 size=N/A time=00:19:50.18 bitrate=N/A speed=19.1x    frame=28775 fps=457 q=-0.0 size=N/A time=00:20:00.15 bitrate=N/A speed=19.1x    frame=29019 fps=457 q=-0.0 size=N/A time=00:20:10.33 bitrate=N/A speed=19.1x    frame=29295 fps=458 q=-0.0 size=N/A time=00:20:21.84 bitrate=N/A speed=19.1x    frame=29571 fps=459 q=-0.0 size=N/A time=00:20:33.35 bitrate=N/A speed=19.1x    frame=29850 fps=459 q=-0.0 size=N/A time=00:20:44.99 bitrate=N/A speed=19.2x    frame=30116 fps=460 q=-0.0 size=N/A time=00:20:56.08 bitrate=N/A speed=19.2x    frame=30356 fps=460 q=-0.0 size=N/A time=00:21:06.09 bitrate=N/A speed=19.2x    frame=30607 fps=460 q=-0.0 size=N/A time=00:21:16.60 bitrate=N/A speed=19.2x    frame=30878 fps=460 q=-0.0 size=N/A time=00:21:27.86 bitrate=N/A speed=19.2x    frame=31118 fps=461 q=-0.0 size=N/A time=00:21:37.87 bitrate=N/A speed=19.2x    frame=31369 fps=461 q=-0.0 size=N/A time=00:21:48.34 bitrate=N/A speed=19.2x    frame=31601 fps=461 q=-0.0 size=N/A time=00:21:58.02 bitrate=N/A speed=19.2x    frame=31847 fps=461 q=-0.0 size=N/A time=00:22:08.28 bitrate=N/A speed=19.2x    frame=32060 fps=460 q=-0.0 size=N/A time=00:22:17.16 bitrate=N/A speed=19.2x    frame=32234 fps=459 q=-0.0 size=N/A time=00:22:24.42 bitrate=N/A speed=19.2x    frame=32427 fps=459 q=-0.0 size=N/A time=00:22:32.47 bitrate=N/A speed=19.1x    frame=32628 fps=458 q=-0.0 size=N/A time=00:22:40.85 bitrate=N/A speed=19.1x    frame=32839 fps=458 q=-0.0 size=N/A time=00:22:49.65 bitrate=N/A speed=19.1x    frame=33018 fps=457 q=-0.0 size=N/A time=00:22:57.12 bitrate=N/A speed=19.1x    frame=33242 fps=457 q=-0.0 size=N/A time=00:23:06.46 bitrate=N/A speed=19.1x    frame=33448 fps=457 q=-0.0 size=N/A time=00:23:15.06 bitrate=N/A speed=  19x    frame=33637 fps=456 q=-0.0 size=N/A time=00:23:22.94 bitrate=N/A speed=  19x    frame=33805 fps=455 q=-0.0 size=N/A time=00:23:29.95 bitrate=N/A speed=  19x    frame=34003 fps=455 q=-0.0 size=N/A time=00:23:38.20 bitrate=N/A speed=  19x    frame=34198 fps=454 q=-0.0 size=N/A time=00:23:46.34 bitrate=N/A speed=18.9x    frame=34360 fps=453 q=-0.0 size=N/A time=00:23:53.09 bitrate=N/A speed=18.9x    frame=34532 fps=452 q=-0.0 size=N/A time=00:24:00.27 bitrate=N/A speed=18.9x    frame=34732 fps=452 q=-0.0 size=N/A time=00:24:08.61 bitrate=N/A speed=18.8x    [Parsed_psnr_10 @ 000002436c45b140] PSNR y:48.151374 u:50.490178 v:51.074051 average:48.862471 min:37.796147 max:inf
[out#0/null @ 000002436c416140] video:15005KiB audio:273324KiB subtitle:0KiB other streams:0KiB global headers:0KiB muxing overhead: unknown
frame=34921 fps=452 q=-0.0 Lsize=N/A time=00:24:16.49 bitrate=N/A speed=18.8x    
